<svg width="150" height="56" viewBox="0 0 347 112" fill="none" xmlns="http://www.w3.org/2000/svg">
            <path d="M11.6172 85.1484C9.78906 85.1953 8.28906 84.8672 7.11719 84.1641C5.89844 83.4609 4.96094 82.4297 4.30469 81.0703C3.60156 79.7578 3.15625 78.1406 2.96875 76.2188C2.78125 74.3438 2.78125 72.2812 2.96875 70.0312C3.20312 68.2969 3.625 66.4922 4.23438 64.6172C4.75 63.0234 5.54688 61.2656 6.625 59.3438C7.65625 57.4219 9.0625 55.5469 10.8438 53.7188C11.2188 53.8125 11.5234 53.9297 11.7578 54.0703C11.9922 54.1641 12.1797 54.2812 12.3203 54.4219C12.4609 54.6094 12.5547 54.7734 12.6016 54.9141C12.6953 55.4297 12.5547 56.0156 12.1797 56.6719C11.8047 57.3281 11.4297 58.0312 11.0547 58.7812C10.0234 60.9375 9.25 62.9766 8.73438 64.8984C8.21875 66.8203 7.89062 68.6016 7.75 70.2422C7.65625 71.6484 7.67969 72.9141 7.82031 74.0391C7.91406 75.2109 8.07812 76.1953 8.3125 76.9922C8.54688 77.8359 8.80469 78.4688 9.08594 78.8906C9.36719 79.3594 9.625 79.5938 9.85938 79.5938C10.0938 79.5938 10.3281 79.4297 10.5625 79.1016C10.8438 78.7734 11.1016 78.375 11.3359 77.9062C11.6172 77.4375 11.9453 76.7109 12.3203 75.7266C12.6953 74.7891 13.0938 73.6875 13.5156 72.4219C13.9375 71.1562 14.3359 69.7969 14.7109 68.3438C15.1328 66.8438 15.5078 65.3438 15.8359 63.8438C16.4922 60.8438 17.1953 57.4688 17.9453 53.7188C18.6953 49.9219 19.7969 45.9609 21.25 41.8359C21.7188 40.1016 22.3047 38.2031 23.0078 36.1406C23.5703 34.3594 24.2734 32.2969 25.1172 29.9531C26.0078 27.5625 27.0156 24.9844 28.1406 22.2188C28.1406 21.9844 28.3281 21.7734 28.7031 21.5859C29.125 21.3516 29.5938 21.1172 30.1094 20.8828C30.6719 20.6484 31.3047 20.4141 32.0078 20.1797C32.9453 19.8516 33.6719 19.6641 34.1875 19.6172C34.75 19.5703 35.1719 19.6406 35.4531 19.8281C35.7344 20.0156 35.9219 20.2734 36.0156 20.6016C36.1094 20.8828 36.1562 21.2109 36.1562 21.5859C36.25 23.1328 36.2969 24.5859 36.2969 25.9453C36.3438 27.3047 36.3906 28.5 36.4375 29.5312C36.4844 30.75 36.5078 31.8516 36.5078 32.8359C36.5547 34.1484 36.4844 35.9062 36.2969 38.1094C36.1094 40.2656 35.8984 42.5391 35.6641 44.9297C35.4766 47.3203 35.2891 49.6641 35.1016 51.9609C34.9609 54.2109 34.9375 56.0859 35.0312 57.5859C35.0312 58.3828 35.0547 59.1328 35.1016 59.8359C35.1953 60.4922 35.2891 61.1484 35.3828 61.8047C35.9922 60.1172 36.6719 58.3594 37.4219 56.5312C38.1719 54.6562 38.9219 52.875 39.6719 51.1875C40.4219 49.4531 41.125 47.8594 41.7812 46.4062C42.4375 44.9062 42.9531 43.6641 43.3281 42.6797C43.8906 41.3672 44.6406 39.7031 45.5781 37.6875C46.5156 35.6719 47.4531 33.6562 48.3906 31.6406C49.375 29.625 50.2656 27.7734 51.0625 26.0859C51.9062 24.3984 52.5156 23.2266 52.8906 22.5703C53.1719 22.1016 53.6406 21.6797 54.2969 21.3047C55 20.9297 55.7266 20.6016 56.4766 20.3203C57.2734 20.0391 58 19.8516 58.6562 19.7578C59.3594 19.6172 59.8281 19.5937 60.0625 19.6875C60.6719 19.8281 61.0938 20.0156 61.3281 20.25C61.6094 20.4844 61.7734 20.6484 61.8203 20.7422C61.9141 20.9297 61.9844 21.2578 62.0312 21.7266C62.0781 22.1484 62.0547 22.8281 61.9609 23.7656C61.8672 24.8906 61.5859 26.6016 61.1172 28.8984C60.6953 31.1953 60.1562 33.8203 59.5 36.7734C58.8906 39.6797 58.2109 42.7969 57.4609 46.125C56.7578 49.4531 56.0781 52.7344 55.4219 55.9688C54.7656 59.1562 54.1797 62.1562 53.6641 64.9688C53.1953 67.7812 52.8906 70.1484 52.75 72.0703C52.6562 74.2266 52.7969 76.125 53.1719 77.7656C53.3125 78.4688 53.5234 79.1484 53.8047 79.8047C54.0859 80.4609 54.4609 81.0234 54.9297 81.4922C55.3984 82.0078 55.9609 82.3828 56.6172 82.6172C57.2734 82.8516 58.0469 82.9219 58.9375 82.8281C57.7656 83.625 56.6172 84.2109 55.4922 84.5859C54.3672 84.9609 53.2656 85.1484 52.1875 85.1484C51.0156 85.1953 49.9844 85.0078 49.0938 84.5859C48.2031 84.2109 47.4531 83.6484 46.8438 82.8984C46.2344 82.1953 45.7891 81.3281 45.5078 80.2969C45.2266 79.3125 45.1328 78.2109 45.2266 76.9922C45.3203 75.8672 45.625 74.0156 46.1406 71.4375C46.6562 68.8594 47.2656 65.9531 47.9688 62.7188C48.7188 59.4375 49.5156 56.0391 50.3594 52.5234C51.25 48.9609 52.0703 45.6328 52.8203 42.5391C53.6172 39.3984 54.2969 36.7031 54.8594 34.4531C55.4219 32.2031 55.7734 30.7266 55.9141 30.0234C56.0078 29.4609 56.0781 28.9453 56.125 28.4766C56.2188 27.9609 56.3125 27.5156 56.4062 27.1406C55.9375 28.0781 55.3516 29.2031 54.6484 30.5156C53.9922 31.8281 53.2891 33.2344 52.5391 34.7344C51.7891 36.2344 51.0156 37.8047 50.2188 39.4453C49.4688 41.0391 48.7422 42.5859 48.0391 44.0859C46.8672 46.5234 45.7188 49.0312 44.5938 51.6094C43.4688 54.1406 42.4609 56.5547 41.5703 58.8516C40.6797 61.1484 39.9297 63.2109 39.3203 65.0391C38.7578 66.8672 38.4297 68.2734 38.3359 69.2578V70.2422C38.3359 70.5234 38.3359 70.8516 38.3359 71.2266C38.3828 71.6016 38.4531 71.9531 38.5469 72.2812L35.7344 74.4609C35.3125 74.6016 34.9375 74.7188 34.6094 74.8125C34.3281 74.9062 34.0469 74.9531 33.7656 74.9531C32.6875 74.9531 31.8672 74.3906 31.3047 73.2656C30.7422 72.2344 30.2266 70.2188 29.7578 67.2188C29.2891 64.2188 29.1484 60.5391 29.3359 56.1797C29.4297 54.0234 29.5703 51.8438 29.7578 49.6406C29.9922 47.4375 30.2031 45.3281 30.3906 43.3125C30.625 41.2969 30.8359 39.4219 31.0234 37.6875C31.2109 35.9062 31.3047 34.3828 31.3047 33.1172C31.3516 32.1797 31.3281 31.3359 31.2344 30.5859C31.1406 29.7891 31.0469 29.0625 30.9531 28.4062C30.5312 29.4844 30.0625 30.9609 29.5469 32.8359C29.0312 34.6641 28.4922 36.7031 27.9297 38.9531C27.3672 41.2031 26.7812 43.5703 26.1719 46.0547C25.6094 48.5391 25.0469 50.9297 24.4844 53.2266C23.9688 55.5234 23.4766 57.6562 23.0078 59.625C22.5391 61.5469 22.1641 63.0938 21.8828 64.2656C21.4141 66.1406 20.9453 68.2734 20.4766 70.6641C20.0078 73.0547 19.4219 75.3047 18.7188 77.4141C18.0156 79.5703 17.1016 81.375 15.9766 82.8281C14.8516 84.3281 13.3984 85.1016 11.6172 85.1484ZM91.4922 59.0625C91.9141 58.6875 92.3125 58.4766 92.6875 58.4297C93.0625 58.3828 93.3438 58.4766 93.5312 58.7109C93.7656 58.8984 93.8359 59.2031 93.7422 59.625C93.6953 60 93.4141 60.4688 92.8984 61.0312C91.8203 62.1094 90.6484 63.2812 89.3828 64.5469C88.1172 65.7656 86.6875 66.9375 85.0938 68.0625C85.4688 68.7656 85.8906 69.3984 86.3594 69.9609C86.7344 70.4766 87.1797 70.9922 87.6953 71.5078C88.2109 71.9766 88.7969 72.3281 89.4531 72.5625C89.3594 72.75 89.1484 72.9375 88.8203 73.125C88.4922 73.3125 88.1406 73.5234 87.7656 73.7578C87.3438 73.9922 86.875 74.25 86.3594 74.5312C85.0938 75.1406 84.0391 75.4688 83.1953 75.5156C82.3516 75.5625 81.6484 75.4453 81.0859 75.1641C80.5234 74.8828 80.0781 74.4609 79.75 73.8984C79.4688 73.3359 79.2344 72.75 79.0469 72.1406C79 72.0938 78.9766 71.9766 78.9766 71.7891C78.9766 71.6953 78.9531 71.625 78.9062 71.5781C77.4062 72.1875 75.8359 72.6797 74.1953 73.0547C72.5547 73.4297 70.8438 73.6172 69.0625 73.6172C66.8125 73.6172 64.9844 73.1719 63.5781 72.2812C62.2188 71.3906 61.2109 70.2891 60.5547 68.9766C59.8516 67.6641 59.4297 66.2578 59.2891 64.7578C59.1484 63.2109 59.1953 61.8047 59.4297 60.5391C59.8516 57.9141 61.1875 55.1016 63.4375 52.1016C65.7344 49.1016 68.7812 45.75 72.5781 42.0469C72.8125 41.8125 73.0703 41.5781 73.3516 41.3438C73.6328 41.1094 73.8906 40.875 74.125 40.6406C74.125 39.375 74.1484 38.1797 74.1953 37.0547C74.2891 35.8828 74.3828 34.7578 74.4766 33.6797C74.5234 33.2578 74.5703 32.8594 74.6172 32.4844C74.6641 32.0625 74.7344 31.6406 74.8281 31.2188C75.2969 28.8281 76.0469 26.8359 77.0781 25.2422C78.1094 23.6016 79.2344 22.2891 80.4531 21.3047C81.7188 20.2734 82.9375 19.5469 84.1094 19.125C85.3281 18.7031 86.3594 18.4922 87.2031 18.4922C87.7656 18.4922 88.375 18.5859 89.0312 18.7734C89.7344 18.9609 90.3438 19.2891 90.8594 19.7578C91.4219 20.2266 91.8438 20.8594 92.125 21.6562C92.4062 22.4531 92.4531 23.4609 92.2656 24.6797C92.0781 25.7109 91.7734 26.7188 91.3516 27.7031C90.9766 28.6875 90.3672 29.7891 89.5234 31.0078C88.7266 32.1797 87.625 33.5391 86.2188 35.0859C84.8594 36.6328 83.125 38.4844 81.0156 40.6406C80.8281 40.8281 80.6406 40.9922 80.4531 41.1328C80.3125 41.2734 80.1719 41.4375 80.0312 41.625C80.2656 45.9375 80.7578 50.0859 81.5078 54.0703C82.3047 58.0547 83.0547 61.4766 83.7578 64.3359C83.8516 64.7109 83.9219 64.9688 83.9688 65.1094C84.9531 64.5 85.8672 63.8906 86.7109 63.2812C87.5547 62.625 88.2812 62.0156 88.8906 61.4531C89.5469 60.8906 90.0859 60.3984 90.5078 59.9766C90.9766 59.5547 91.3047 59.25 91.4922 59.0625ZM72.0156 68.8359C73.0469 68.8359 74.0312 68.7656 74.9688 68.625C75.9062 68.4375 76.8438 68.2266 77.7812 67.9922C77.3594 66.5859 76.8906 64.8516 76.375 62.7891C75.9062 60.7266 75.4844 58.4062 75.1094 55.8281C74.9219 54.4688 74.7578 53.1094 74.6172 51.75C74.5234 50.3906 74.4297 49.0547 74.3359 47.7422C68.9453 53.7891 65.9688 58.4531 65.4062 61.7344C65.3125 62.3906 65.3125 63.1406 65.4062 63.9844C65.5 64.7812 65.7812 65.5547 66.25 66.3047C66.7188 67.0078 67.3984 67.6172 68.2891 68.1328C69.2266 68.6016 70.4688 68.8359 72.0156 68.8359ZM80.5234 27.9141C80.1953 30.2109 79.9844 32.625 79.8906 35.1562C82.1406 32.9531 84.0625 30.9844 85.6562 29.25C87.25 27.5156 88.1641 25.9688 88.3984 24.6094C88.4922 23.9531 88.3984 23.3203 88.1172 22.7109C87.8828 22.0547 87.4141 21.7266 86.7109 21.7266C85.9609 21.7266 85.2344 21.9141 84.5312 22.2891C83.8281 22.6641 83.1953 23.1563 82.6328 23.7656C82.1172 24.3281 81.6719 24.9844 81.2969 25.7344C80.9219 26.4375 80.6641 27.1641 80.5234 27.9141ZM100.281 27.9844C99.7188 28.1719 99.2969 28.1953 99.0156 28.0547C98.7344 27.9141 98.5234 27.6797 98.3828 27.3516C98.2422 27.0234 98.1719 26.6719 98.1719 26.2969C98.1719 25.875 98.1953 25.4766 98.2422 25.1016C98.2891 24.7734 98.3594 24.3984 98.4531 23.9766C98.5938 23.5547 98.7578 23.1563 98.9453 22.7812C99.1328 22.4062 99.3438 22.1016 99.5781 21.8672C99.8594 21.5859 100.211 21.3984 100.633 21.3047C102.789 20.9297 104.875 20.6484 106.891 20.4609C108.953 20.2734 110.805 20.1328 112.445 20.0391C114.32 19.8984 116.125 19.8281 117.859 19.8281C118.234 19.8281 118.609 19.8516 118.984 19.8984C119.359 19.8984 119.734 19.8984 120.109 19.8984C120.531 19.8047 120.859 19.7813 121.094 19.8281C121.375 19.8281 121.609 19.8516 121.797 19.8984C123.156 19.9453 124.562 20.0156 126.016 20.1094C127.234 20.2031 128.594 20.3203 130.094 20.4609C131.641 20.5547 133.164 20.6953 134.664 20.8828C134.805 21.2578 134.828 21.7266 134.734 22.2891C134.688 22.5703 134.641 22.8516 134.594 23.1328C134.547 23.4141 134.43 23.6719 134.242 23.9062C134.102 24.1406 133.914 24.375 133.68 24.6094C133.492 24.7969 133.258 24.9609 132.977 25.1016C131.383 25.0547 129.836 25.0312 128.336 25.0312C126.883 24.9844 125.594 24.9609 124.469 24.9609H120.672C120.062 27.1172 119.312 29.7891 118.422 32.9766C117.531 36.1172 116.617 39.4453 115.68 42.9609C114.789 46.4297 113.922 49.8984 113.078 53.3672C112.281 56.7891 111.648 59.8828 111.18 62.6484C110.711 65.3203 110.242 67.9453 109.773 70.5234C109.586 71.6016 109.375 72.7266 109.141 73.8984C108.953 75.0703 108.766 76.2188 108.578 77.3438C108.438 78.4688 108.297 79.5469 108.156 80.5781C108.016 81.6094 107.898 82.5469 107.805 83.3906C107.055 83.7656 106.352 84.0469 105.695 84.2344C105.039 84.4688 104.453 84.6328 103.938 84.7266C103.328 84.8672 102.766 84.9375 102.25 84.9375C101.125 84.9375 100.422 84.7969 100.141 84.5156C99.9062 84.2812 99.8828 83.7891 100.07 83.0391C100.211 82.3828 100.633 80.6016 101.336 77.6953C101.617 76.4766 101.969 74.9297 102.391 73.0547C102.859 71.2266 103.398 69 104.008 66.375C104.617 63.7031 105.344 60.6094 106.188 57.0938C107.031 53.5312 107.992 49.4531 109.07 44.8594L113.781 25.3125C112.375 25.5 110.992 25.7109 109.633 25.9453C108.273 26.1797 106.984 26.4375 105.766 26.7188C104.594 26.9531 103.516 27.1875 102.531 27.4219C101.594 27.6563 100.844 27.8438 100.281 27.9844ZM150.977 27.9844C150.414 28.1719 149.992 28.1953 149.711 28.0547C149.43 27.9141 149.219 27.6797 149.078 27.3516C148.938 27.0234 148.867 26.6719 148.867 26.2969C148.867 25.875 148.891 25.4766 148.938 25.1016C148.984 24.7734 149.055 24.3984 149.148 23.9766C149.289 23.5547 149.453 23.1563 149.641 22.7812C149.828 22.4062 150.039 22.1016 150.273 21.8672C150.555 21.5859 150.906 21.3984 151.328 21.3047C153.484 20.9297 155.57 20.6484 157.586 20.4609C159.648 20.2734 161.5 20.1328 163.141 20.0391C165.016 19.8984 166.82 19.8281 168.555 19.8281C168.93 19.8281 169.305 19.8516 169.68 19.8984C170.055 19.8984 170.43 19.8984 170.805 19.8984C171.227 19.8047 171.555 19.7813 171.789 19.8281C172.07 19.8281 172.305 19.8516 172.492 19.8984C173.852 19.9453 175.258 20.0156 176.711 20.1094C177.93 20.2031 179.289 20.3203 180.789 20.4609C182.336 20.5547 183.859 20.6953 185.359 20.8828C185.5 21.2578 185.523 21.7266 185.43 22.2891C185.383 22.5703 185.336 22.8516 185.289 23.1328C185.242 23.4141 185.125 23.6719 184.938 23.9062C184.797 24.1406 184.609 24.375 184.375 24.6094C184.188 24.7969 183.953 24.9609 183.672 25.1016C182.078 25.0547 180.531 25.0312 179.031 25.0312C177.578 24.9844 176.289 24.9609 175.164 24.9609H171.367C170.758 27.1172 170.008 29.7891 169.117 32.9766C168.227 36.1172 167.312 39.4453 166.375 42.9609C165.484 46.4297 164.617 49.8984 163.773 53.3672C162.977 56.7891 162.344 59.8828 161.875 62.6484C161.406 65.3203 160.938 67.9453 160.469 70.5234C160.281 71.6016 160.07 72.7266 159.836 73.8984C159.648 75.0703 159.461 76.2188 159.273 77.3438C159.133 78.4688 158.992 79.5469 158.852 80.5781C158.711 81.6094 158.594 82.5469 158.5 83.3906C157.75 83.7656 157.047 84.0469 156.391 84.2344C155.734 84.4688 155.148 84.6328 154.633 84.7266C154.023 84.8672 153.461 84.9375 152.945 84.9375C151.82 84.9375 151.117 84.7969 150.836 84.5156C150.602 84.2812 150.578 83.7891 150.766 83.0391C150.906 82.3828 151.328 80.6016 152.031 77.6953C152.312 76.4766 152.664 74.9297 153.086 73.0547C153.555 71.2266 154.094 69 154.703 66.375C155.312 63.7031 156.039 60.6094 156.883 57.0938C157.727 53.5312 158.688 49.4531 159.766 44.8594L164.477 25.3125C163.07 25.5 161.688 25.7109 160.328 25.9453C158.969 26.1797 157.68 26.4375 156.461 26.7188C155.289 26.9531 154.211 27.1875 153.227 27.4219C152.289 27.6563 151.539 27.8438 150.977 27.9844ZM174.531 71.6484C174.203 72.1641 173.852 72.4922 173.477 72.6328C173.055 72.8203 172.703 72.8438 172.422 72.7031C172.094 72.6094 171.883 72.375 171.789 72C171.695 71.625 171.789 71.1562 172.07 70.5938C172.211 70.3125 172.539 69.6797 173.055 68.6953C173.523 67.7109 174.109 66.5391 174.812 65.1797C175.469 63.7734 176.195 62.2734 176.992 60.6797C177.789 59.0391 178.539 57.4922 179.242 56.0391C179.992 54.5859 180.672 53.2969 181.281 52.1719C181.891 51 182.336 50.1562 182.617 49.6406C182.102 49.1719 181.75 48.8438 181.562 48.6562C181.375 48.4219 181.234 47.9531 181.141 47.25C181.047 46.6406 181.188 45.8438 181.562 44.8594C181.938 43.875 182.43 42.9375 183.039 42.0469C183.648 41.1094 184.328 40.3125 185.078 39.6562C185.828 39 186.555 38.6719 187.258 38.6719C188.57 38.6719 189.484 39.0938 190 39.9375C190.562 40.7812 190.891 41.6484 190.984 42.5391C191.078 43.1484 191.031 43.9219 190.844 44.8594C190.656 45.7969 190.305 46.6406 189.789 47.3906C189.93 47.4844 190.117 47.6016 190.352 47.7422C190.586 47.8359 190.961 47.8828 191.477 47.8828C192.227 47.8828 192.742 47.8359 193.023 47.7422C193.352 47.6484 193.844 47.6016 194.5 47.6016C195.297 47.6016 195.953 47.8125 196.469 48.2344C196.984 48.6094 197.406 49.1016 197.734 49.7109C198.062 50.2734 198.297 50.9062 198.438 51.6094C198.625 52.2656 198.742 52.875 198.789 53.4375C198.93 54.6094 198.625 55.8281 197.875 57.0938C197.125 58.3594 196.211 59.7422 195.133 61.2422C194.477 62.1797 193.82 63.2344 193.164 64.4062C192.508 65.5781 192.227 66.6328 192.32 67.5703C192.414 68.1797 192.578 68.6719 192.812 69.0469C193.047 69.4219 193.703 69.6094 194.781 69.6094C195.578 69.6094 196.445 69.3281 197.383 68.7656C198.367 68.1562 199.352 67.4062 200.336 66.5156C201.367 65.5781 202.375 64.5703 203.359 63.4922C204.344 62.3672 205.258 61.2891 206.102 60.2578C206.945 59.1797 207.648 58.2188 208.211 57.375C208.82 56.5312 209.266 55.9219 209.547 55.5469C209.781 55.1719 210.086 54.9141 210.461 54.7734C210.836 54.6328 211.164 54.6328 211.445 54.7734C211.727 54.9141 211.891 55.1953 211.938 55.6172C212.031 56.0391 211.867 56.6016 211.445 57.3047C211.164 57.7734 210.672 58.5234 209.969 59.5547C209.312 60.5859 208.492 61.7344 207.508 63C206.57 64.2656 205.516 65.5781 204.344 66.9375C203.172 68.25 201.93 69.4688 200.617 70.5938C199.352 71.6719 198.062 72.5625 196.75 73.2656C195.484 73.9688 194.266 74.3203 193.094 74.3203C191.875 74.3203 190.867 74.0859 190.07 73.6172C189.273 73.1484 188.617 72.5859 188.102 71.9297C187.633 71.2266 187.281 70.4766 187.047 69.6797C186.859 68.8359 186.789 68.0625 186.836 67.3594C186.883 66.7969 187.023 66.2109 187.258 65.6016C187.539 64.9453 187.844 64.2891 188.172 63.6328C188.547 62.9297 188.922 62.25 189.297 61.5938C189.719 60.8906 190.094 60.2109 190.422 59.5547C191.219 58.1953 191.852 57.0469 192.32 56.1094C192.836 55.125 193.094 54.3047 193.094 53.6484C193.094 53.2266 193 52.8516 192.812 52.5234C192.625 52.1953 192.32 52.0312 191.898 52.0312C191.617 52.0312 191.406 52.0547 191.266 52.1016C191.172 52.1016 191.055 52.1016 190.914 52.1016C190.82 52.1016 190.656 52.125 190.422 52.1719C190.234 52.1719 189.93 52.1719 189.508 52.1719C188.898 52.1719 188.383 52.0781 187.961 51.8906C187.539 51.7031 187.141 51.5625 186.766 51.4688C186.578 51.7969 186.156 52.5 185.5 53.5781C184.844 54.6562 184.07 55.9219 183.18 57.375C182.336 58.8281 181.422 60.3516 180.438 61.9453C179.5 63.5391 178.609 65.0391 177.766 66.4453C176.922 67.8047 176.219 68.9766 175.656 69.9609C175.047 70.8984 174.672 71.4609 174.531 71.6484ZM242.523 58.0078C241.867 58.9453 241.023 60.1172 239.992 61.5234C238.961 62.8828 237.883 64.2656 236.758 65.6719C235.68 67.0312 234.602 68.2969 233.523 69.4688C232.492 70.5938 231.625 71.3906 230.922 71.8594C230.453 72.1406 229.914 72.375 229.305 72.5625C228.695 72.75 228.062 72.8672 227.406 72.9141C226.797 72.9609 226.211 72.9141 225.648 72.7734C225.086 72.6797 224.594 72.4922 224.172 72.2109C223.75 71.8828 223.398 71.4141 223.117 70.8047C222.883 70.2891 222.648 69.6094 222.414 68.7656C222.227 67.9219 222.156 66.8672 222.203 65.6016C221.078 67.4766 219.836 68.9297 218.477 69.9609C217.117 70.9453 215.828 71.6719 214.609 72.1406C213.203 72.6562 211.797 72.9609 210.391 73.0547C209.734 73.0547 209.031 72.8203 208.281 72.3516C207.531 71.9297 206.898 71.25 206.383 70.3125C205.867 69.3281 205.539 68.0859 205.398 66.5859C205.258 65.0391 205.445 63.2109 205.961 61.1016C206.617 58.2422 207.648 55.6406 209.055 53.2969C210.508 50.9531 212.078 48.9609 213.766 47.3203C215.453 45.6328 217.117 44.3672 218.758 43.5234C220.398 42.6797 221.758 42.3047 222.836 42.3984C224.102 42.6328 225.133 43.0078 225.93 43.5234C226.586 43.9922 227.008 44.6953 227.195 45.6328C227.43 46.5234 227.055 47.7188 226.07 49.2188C226.727 49.0781 227.266 48.9844 227.688 48.9375C228.156 48.8906 228.508 48.8672 228.742 48.8672C229.023 48.8672 229.211 48.8906 229.305 48.9375C229.352 49.0312 229.375 49.2422 229.375 49.5703C229.375 49.8516 229.305 50.3906 229.164 51.1875C229.023 51.9844 228.812 53.0625 228.531 54.4219C228.25 55.7812 227.875 57.5391 227.406 59.6953C227.312 60.1172 227.219 60.5156 227.125 60.8906C227.078 61.2188 227.008 61.5703 226.914 61.9453C226.867 62.2734 226.797 62.6719 226.703 63.1406C226.609 63.6094 226.492 64.1953 226.352 64.8984C226.305 65.3203 226.281 65.7891 226.281 66.3047C226.328 66.7734 226.422 67.2188 226.562 67.6406C226.703 68.0625 226.914 68.4141 227.195 68.6953C227.523 68.9297 227.969 69.0469 228.531 69.0469C229 69.0469 229.609 68.7656 230.359 68.2031C231.109 67.5938 231.906 66.8438 232.75 65.9531C233.594 65.0156 234.461 64.0078 235.352 62.9297C236.289 61.8047 237.156 60.7266 237.953 59.6953C238.75 58.6641 239.453 57.75 240.062 56.9531C240.719 56.1562 241.188 55.5703 241.469 55.1953C241.844 54.7734 242.219 54.5391 242.594 54.4922C242.969 54.3984 243.25 54.4922 243.438 54.7734C243.625 55.0547 243.648 55.4766 243.508 56.0391C243.414 56.6016 243.086 57.2578 242.523 58.0078ZM221.922 61.1016C222.156 60.1641 222.438 59.0625 222.766 57.7969C223.094 56.5312 223.375 55.3125 223.609 54.1406C223.844 52.9688 224.008 52.0078 224.102 51.2578C224.242 50.4609 224.219 50.0859 224.031 50.1328C223.797 50.1797 223.539 50.25 223.258 50.3438C223.023 50.4375 222.719 50.5078 222.344 50.5547C221.969 50.6016 221.594 50.6719 221.219 50.7656C221.594 50.0156 221.805 49.4062 221.852 48.9375C221.945 48.4219 221.969 48.0234 221.922 47.7422C221.875 47.4141 221.781 47.1562 221.641 46.9688C221.125 46.5469 220.211 46.8984 218.898 48.0234C217.633 49.1016 216.156 51.1172 214.469 54.0703C213.766 55.2891 213.203 56.6016 212.781 58.0078C212.359 59.3672 212.055 60.6562 211.867 61.875C211.727 63.0938 211.703 64.1719 211.797 65.1094C211.891 66 212.078 66.5859 212.359 66.8672C212.875 67.3828 213.461 67.6406 214.117 67.6406C214.773 67.5938 215.43 67.4062 216.086 67.0781C216.789 66.7031 217.469 66.2344 218.125 65.6719C218.828 65.1094 219.438 64.5234 219.953 63.9141C220.516 63.3047 220.961 62.7422 221.289 62.2266C221.664 61.7109 221.875 61.3359 221.922 61.1016ZM258.414 59.4844C257.195 61.2656 255.93 63 254.617 64.6875C253.352 66.375 252.109 67.8984 250.891 69.2578C249.719 70.5703 248.617 71.625 247.586 72.4219C246.602 73.2656 245.805 73.6875 245.195 73.6875C243.742 73.6875 242.547 73.0078 241.609 71.6484C240.719 70.2422 240.016 68.5312 239.5 66.5156C239.031 64.4531 238.727 62.2734 238.586 59.9766C238.492 57.6328 238.516 55.5469 238.656 53.7188C238.844 51.8906 239.055 50.4375 239.289 49.3594C239.523 48.2344 239.805 47.3672 240.133 46.7578C240.508 46.1484 240.93 45.7031 241.398 45.4219C241.914 45.1406 242.547 44.9062 243.297 44.7188C243.625 44.625 244 44.5547 244.422 44.5078C244.844 44.4609 245.219 44.4844 245.547 44.5781C245.922 44.625 246.203 44.7656 246.391 45C246.578 45.2344 246.602 45.5859 246.461 46.0547C246.367 46.4766 246.203 47.1094 245.969 47.9531C245.781 48.75 245.57 49.6641 245.336 50.6953C245.102 51.7266 244.867 52.8047 244.633 53.9297C244.445 55.0547 244.305 56.1328 244.211 57.1641C244.07 58.9453 244.07 60.5156 244.211 61.875C244.352 63.1875 244.562 64.3125 244.844 65.25C245.125 66.1406 245.43 66.8203 245.758 67.2891C246.086 67.7578 246.344 67.9922 246.531 67.9922C246.766 67.9922 247.188 67.6875 247.797 67.0781C248.453 66.4219 249.18 65.5781 249.977 64.5469C250.82 63.5156 251.688 62.3203 252.578 60.9609C253.516 59.6016 254.383 58.1953 255.18 56.7422C254.898 55.9922 254.781 55.1016 254.828 54.0703C254.969 52.4766 255.32 51.0469 255.883 49.7812C256.445 48.4688 257.078 47.3672 257.781 46.4766C258.531 45.5859 259.281 44.9062 260.031 44.4375C260.828 43.9219 261.531 43.6641 262.141 43.6641C263.359 43.6641 264.109 43.9922 264.391 44.6484C264.719 45.2578 264.836 45.8906 264.742 46.5469C264.648 47.5312 264.203 48.8906 263.406 50.625C262.656 52.3125 261.672 54.1641 260.453 56.1797C260.688 56.2734 260.945 56.3672 261.227 56.4609C261.508 56.5547 261.836 56.6016 262.211 56.6016C263.805 56.6016 265.234 56.4141 266.5 56.0391C267.812 55.6641 268.938 55.2188 269.875 54.7031C270.859 54.1875 271.68 53.6484 272.336 53.0859C273.039 52.4766 273.602 51.9844 274.023 51.6094C274.305 51.3281 274.586 51.1875 274.867 51.1875C275.148 51.1875 275.383 51.2578 275.57 51.3984C275.758 51.5391 275.852 51.75 275.852 52.0312C275.852 52.3125 275.711 52.6172 275.43 52.9453C273.742 55.0078 271.68 56.6719 269.242 57.9375C266.852 59.2031 264.039 59.8359 260.805 59.8359C260.523 59.8359 260.172 59.8125 259.75 59.7656C259.328 59.7188 258.883 59.625 258.414 59.4844ZM300.461 57.375C299.055 59.4375 297.461 61.4531 295.68 63.4219C293.898 65.3438 292 67.0781 289.984 68.625C288.016 70.125 285.977 71.3438 283.867 72.2812C281.805 73.2188 279.789 73.6875 277.82 73.6875C276.789 73.6875 275.664 73.4297 274.445 72.9141C273.273 72.4453 272.195 71.6953 271.211 70.6641C270.227 69.6328 269.43 68.2969 268.82 66.6562C268.258 65.0156 268.094 63.0234 268.328 60.6797C268.516 58.7578 269.102 56.7422 270.086 54.6328C271.117 52.4766 272.359 50.5078 273.812 48.7266C275.312 46.9453 276.977 45.4688 278.805 44.2969C280.68 43.125 282.555 42.5391 284.43 42.5391C286.211 42.5391 287.5 42.9844 288.297 43.875C289.094 44.7656 289.445 45.8672 289.352 47.1797C289.211 48.6328 288.789 49.9688 288.086 51.1875C287.43 52.4062 286.633 53.5078 285.695 54.4922C284.758 55.4766 283.75 56.3672 282.672 57.1641C281.641 57.9609 280.656 58.6875 279.719 59.3438C278.688 60.0469 277.703 60.7266 276.766 61.3828C275.828 61.9922 275.008 62.5547 274.305 63.0703C274.352 64.2422 274.562 65.2266 274.938 66.0234C275.312 66.8203 275.781 67.4766 276.344 67.9922C276.906 68.4609 277.539 68.8125 278.242 69.0469C278.992 69.2344 279.742 69.3281 280.492 69.3281C282.086 69.3281 283.75 68.8359 285.484 67.8516C287.219 66.8203 288.906 65.6016 290.547 64.1953C292.234 62.7422 293.781 61.2422 295.188 59.6953C296.641 58.1484 297.836 56.8125 298.773 55.6875C299.102 55.3125 299.43 55.1016 299.758 55.0547C300.133 54.9609 300.414 55.0078 300.602 55.1953C300.836 55.3359 300.953 55.6172 300.953 56.0391C300.953 56.4141 300.789 56.8594 300.461 57.375ZM282.461 46.5469C281.898 46.5469 281.219 46.8281 280.422 47.3906C279.672 47.9531 278.922 48.7734 278.172 49.8516C277.422 50.8828 276.719 52.1719 276.062 53.7188C275.406 55.2188 274.914 56.9531 274.586 58.9219C275.148 58.5 275.758 58.0781 276.414 57.6562C277.07 57.1875 277.727 56.6953 278.383 56.1797C280.398 54.6328 281.805 53.2734 282.602 52.1016C283.398 50.9297 283.844 49.9219 283.938 49.0781C284.031 48.1875 283.938 47.5547 283.656 47.1797C283.375 46.7578 282.977 46.5469 282.461 46.5469ZM294.344 70.875C296.406 62.2031 298.047 55.2422 299.266 49.9922C300.531 44.7422 301.492 40.7344 302.148 37.9688C302.898 34.6875 303.414 32.4141 303.695 31.1484C303.836 30.2578 303.953 29.3906 304.047 28.5469C304.141 27.7969 304.188 27.0234 304.188 26.2266C304.188 25.4297 304.117 24.7031 303.977 24.0469C304.352 23.8125 304.75 23.625 305.172 23.4844C305.641 23.3438 306.086 23.2266 306.508 23.1328C307.023 22.9922 307.539 22.875 308.055 22.7812C308.57 22.6875 309.039 22.6406 309.461 22.6406C309.836 22.6406 310.188 22.6875 310.516 22.7812C310.844 22.8281 311.055 22.9687 311.148 23.2031C311.43 23.4375 311.547 23.9062 311.5 24.6094C311.5 25.3125 311.453 26.0391 311.359 26.7891C311.172 27.6797 310.961 28.6406 310.727 29.6719C310.164 31.6875 309.391 34.5938 308.406 38.3906C307.562 41.625 306.414 46.0312 304.961 51.6094C303.555 57.1875 301.773 64.2188 299.617 72.7031C299.383 72.9375 299.102 73.1016 298.773 73.1953C298.445 73.2891 298.141 73.3359 297.859 73.3359C297.531 73.3359 297.18 73.3125 296.805 73.2656C296.477 73.1719 296.148 73.0312 295.82 72.8438C295.539 72.6562 295.258 72.3984 294.977 72.0703C294.695 71.7891 294.484 71.3906 294.344 70.875ZM321.062 69.6094C321.344 69.7969 321.695 69.8906 322.117 69.8906C322.586 69.8906 323.031 69.7969 323.453 69.6094C323.922 69.4219 324.344 69.1641 324.719 68.8359C325.141 68.5078 325.445 68.0859 325.633 67.5703C325.82 67.0547 325.82 66.3281 325.633 65.3906C325.445 64.4062 325.141 63.375 324.719 62.2969C324.344 61.1719 323.922 60.0469 323.453 58.9219C322.984 57.7969 322.586 56.7656 322.258 55.8281C321.977 55.125 321.742 54.4688 321.555 53.8594C321.367 53.3438 321.18 52.8516 320.992 52.3828C320.852 51.8672 320.734 51.5156 320.641 51.3281C320.406 51.7031 319.984 52.3125 319.375 53.1562C318.812 54 318.18 54.8906 317.477 55.8281C316.82 56.7188 316.188 57.5625 315.578 58.3594C314.969 59.1094 314.547 59.625 314.312 59.9062C313.938 60.3281 313.562 60.5859 313.188 60.6797C312.859 60.7266 312.578 60.6562 312.344 60.4688C312.109 60.2344 311.969 59.9297 311.922 59.5547C311.922 59.1328 312.109 58.6406 312.484 58.0781C312.766 57.7031 313.188 57.1172 313.75 56.3203C314.312 55.4766 314.875 54.6328 315.438 53.7891C316 52.8984 316.516 52.125 316.984 51.4688C317.453 50.7656 317.711 50.3438 317.758 50.2031C317.852 49.8281 317.711 49.3359 317.336 48.7266C317.008 48.1172 316.961 47.4141 317.195 46.6172C317.383 45.9609 317.805 45.2109 318.461 44.3672C319.117 43.4766 319.891 42.6797 320.781 41.9766C321.672 41.2734 322.586 40.7578 323.523 40.4297C324.461 40.0547 325.305 40.0547 326.055 40.4297C326.664 40.8047 327.156 41.2266 327.531 41.6953C327.906 42.1172 328.047 42.5625 327.953 43.0312C327.859 43.2656 327.719 43.5703 327.531 43.9453C327.344 44.3203 327.062 44.7891 326.688 45.3516C326.312 45.8672 325.773 46.5469 325.07 47.3906C325.211 48.4688 325.398 49.4531 325.633 50.3438C325.914 51.2344 326.172 52.0078 326.406 52.6641C326.688 53.4609 326.992 54.1875 327.32 54.8438C327.742 55.6875 328.188 56.5547 328.656 57.4453C329.125 58.3359 329.547 59.2266 329.922 60.1172C330.297 60.9609 330.602 61.7578 330.836 62.5078C331.07 63.2578 331.141 63.8906 331.047 64.4062C330.906 65.2031 330.484 66.1641 329.781 67.2891C329.125 68.4141 328.281 69.5156 327.25 70.5938C326.266 71.625 325.117 72.5156 323.805 73.2656C322.539 74.0156 321.203 74.3906 319.797 74.3906C318.812 74.3906 317.852 74.0859 316.914 73.4766C316.023 72.8672 315.25 72.1641 314.594 71.3672C313.984 70.5234 313.516 69.7031 313.188 68.9062C312.906 68.1094 312.883 67.5 313.117 67.0781C313.398 66.5156 313.656 66.0703 313.891 65.7422C314.125 65.4141 314.477 65.0391 314.945 64.6172C315.133 64.4766 315.367 64.3125 315.648 64.125C315.883 63.9844 316.211 63.8438 316.633 63.7031C317.055 63.5625 317.547 63.3984 318.109 63.2109C318.578 64.6641 319 65.8125 319.375 66.6562C319.75 67.4531 320.055 68.0859 320.289 68.5547C320.57 69.0703 320.828 69.4219 321.062 69.6094Z" fill="black"/>
            </svg>